<?xml version="1.0" encoding="UTF-8" standalone="no"?>
<!DOCTYPE svg PUBLIC "-//W3C//DTD SVG 1.1//EN"
 "http://www.w3.org/Graphics/SVG/1.1/DTD/svg11.dtd">
<!-- Generated by graphviz version 3.0.0 (0)
 -->
<!-- Title: Arch Pages: 1 -->
<svg width="218pt" height="260pt"
 viewBox="0.00 0.00 218.21 260.00" xmlns="http://www.w3.org/2000/svg" xmlns:xlink="http://www.w3.org/1999/xlink">
<g id="graph0" class="graph" transform="scale(1 1) rotate(0) translate(4 256)">
<title>Arch</title>
<polygon fill="white" stroke="transparent" points="-4,4 -4,-256 214.21,-256 214.21,4 -4,4"/>
<!-- e -->
<g id="node1" class="node">
<title>e</title>
<path fill="none" stroke="black" stroke-width="2" d="M145.21,-36C145.21,-36 86.21,-36 86.21,-36 80.21,-36 74.21,-30 74.21,-24 74.21,-24 74.21,-12 74.21,-12 74.21,-6 80.21,0 86.21,0 86.21,0 145.21,0 145.21,0 151.21,0 157.21,-6 157.21,-12 157.21,-12 157.21,-24 157.21,-24 157.21,-30 151.21,-36 145.21,-36"/>
<text text-anchor="middle" x="115.71" y="-14.3" font-family="monospace" font-size="14.00">Entities</text>
</g>
<!-- p -->
<g id="node2" class="node">
<title>p</title>
<path fill="none" stroke="black" stroke-width="2" d="M132.71,-108C132.71,-108 98.71,-108 98.71,-108 92.71,-108 86.71,-102 86.71,-96 86.71,-96 86.71,-84 86.71,-84 86.71,-78 92.71,-72 98.71,-72 98.71,-72 132.71,-72 132.71,-72 138.71,-72 144.71,-78 144.71,-84 144.71,-84 144.71,-96 144.71,-96 144.71,-102 138.71,-108 132.71,-108"/>
<text text-anchor="middle" x="115.71" y="-86.3" font-family="monospace" font-size="14.00">Ports</text>
</g>
<!-- p&#45;&gt;e -->
<g id="edge5" class="edge">
<title>p&#45;&gt;e</title>
<path fill="none" stroke="black" d="M115.71,-71.7C115.71,-63.98 115.71,-54.71 115.71,-46.11"/>
<polygon fill="black" stroke="black" points="119.21,-46.1 115.71,-36.1 112.21,-46.1 119.21,-46.1"/>
</g>
<!-- uc -->
<g id="node3" class="node">
<title>uc</title>
<path fill="none" stroke="black" stroke-width="2" d="M97.21,-180C97.21,-180 30.21,-180 30.21,-180 24.21,-180 18.21,-174 18.21,-168 18.21,-168 18.21,-156 18.21,-156 18.21,-150 24.21,-144 30.21,-144 30.21,-144 97.21,-144 97.21,-144 103.21,-144 109.21,-150 109.21,-156 109.21,-156 109.21,-168 109.21,-168 109.21,-174 103.21,-180 97.21,-180"/>
<text text-anchor="middle" x="63.71" y="-158.3" font-family="monospace" font-size="14.00">Use Cases</text>
</g>
<!-- uc&#45;&gt;e -->
<g id="edge1" class="edge">
<title>uc&#45;&gt;e</title>
<path fill="none" stroke="black" d="M64.06,-143.97C64.97,-125.59 67.98,-95.74 77.71,-72 81.66,-62.36 87.68,-52.8 93.77,-44.51"/>
<polygon fill="black" stroke="black" points="96.71,-46.43 100.06,-36.38 91.18,-42.15 96.71,-46.43"/>
</g>
<!-- uc&#45;&gt;p -->
<g id="edge2" class="edge">
<title>uc&#45;&gt;p</title>
<path fill="none" stroke="black" d="M76.56,-143.7C82.73,-135.39 90.24,-125.28 97.03,-116.14"/>
<polygon fill="black" stroke="black" points="99.85,-118.22 103,-108.1 94.23,-114.04 99.85,-118.22"/>
</g>
<!-- ad -->
<g id="node4" class="node">
<title>ad</title>
<path fill="none" stroke="black" stroke-width="2" d="M198.21,-180C198.21,-180 139.21,-180 139.21,-180 133.21,-180 127.21,-174 127.21,-168 127.21,-168 127.21,-156 127.21,-156 127.21,-150 133.21,-144 139.21,-144 139.21,-144 198.21,-144 198.21,-144 204.21,-144 210.21,-150 210.21,-156 210.21,-156 210.21,-168 210.21,-168 210.21,-174 204.21,-180 198.21,-180"/>
<text text-anchor="middle" x="168.71" y="-158.3" font-family="monospace" font-size="14.00">Adapters</text>
</g>
<!-- ad&#45;&gt;e -->
<g id="edge3" class="edge">
<title>ad&#45;&gt;e</title>
<path fill="none" stroke="black" d="M168.11,-143.97C166.96,-125.58 163.58,-95.72 153.71,-72 149.7,-62.38 143.67,-52.83 137.58,-44.54"/>
<polygon fill="black" stroke="black" points="140.18,-42.18 131.29,-36.4 134.64,-46.46 140.18,-42.18"/>
</g>
<!-- ad&#45;&gt;p -->
<g id="edge4" class="edge">
<title>ad&#45;&gt;p</title>
<path fill="none" stroke="black" d="M155.61,-143.7C149.32,-135.39 141.66,-125.28 134.74,-116.14"/>
<polygon fill="black" stroke="black" points="137.48,-113.96 128.66,-108.1 131.9,-118.19 137.48,-113.96"/>
</g>
<!-- ap -->
<g id="node5" class="node">
<title>ap</title>
<path fill="none" stroke="black" stroke-width="2" d="M157.21,-252C157.21,-252 74.21,-252 74.21,-252 68.21,-252 62.21,-246 62.21,-240 62.21,-240 62.21,-228 62.21,-228 62.21,-222 68.21,-216 74.21,-216 74.21,-216 157.21,-216 157.21,-216 163.21,-216 169.21,-222 169.21,-228 169.21,-228 169.21,-240 169.21,-240 169.21,-246 163.21,-252 157.21,-252"/>
<text text-anchor="middle" x="115.71" y="-230.3" font-family="monospace" font-size="14.00">Application</text>
</g>
<!-- ap&#45;&gt;e -->
<g id="edge8" class="edge">
<title>ap&#45;&gt;e</title>
<path fill="none" stroke="black" d="M62.17,-219.63C41.79,-211.66 20.62,-199.2 8.71,-180 -22.25,-130.11 39.07,-73.22 81.01,-42.2"/>
<polygon fill="black" stroke="black" points="83.31,-44.85 89.36,-36.16 79.21,-39.18 83.31,-44.85"/>
</g>
<!-- ap&#45;&gt;uc -->
<g id="edge6" class="edge">
<title>ap&#45;&gt;uc</title>
<path fill="none" stroke="black" d="M102.85,-215.7C96.68,-207.39 89.17,-197.28 82.38,-188.14"/>
<polygon fill="black" stroke="black" points="85.19,-186.04 76.41,-180.1 79.57,-190.22 85.19,-186.04"/>
</g>
<!-- ap&#45;&gt;ad -->
<g id="edge7" class="edge">
<title>ap&#45;&gt;ad</title>
<path fill="none" stroke="black" d="M128.81,-215.7C135.1,-207.39 142.75,-197.28 149.67,-188.14"/>
<polygon fill="black" stroke="black" points="152.51,-190.19 155.76,-180.1 146.93,-185.96 152.51,-190.19"/>
</g>
</g>
</svg>
